<mxfile host="app.diagrams.net" modified="2024-06-19T00:58:09.280Z" agent="Mozilla/5.0 (Windows NT 10.0; Win64; x64) AppleWebKit/537.36 (KHTML, like Gecko) Chrome/126.0.0.0 Safari/537.36" etag="_3XgyLrcEsSP6b1gIqDK" version="24.5.4" type="github">
  <diagram name="페이지-1" id="5VnVQHAmhh8ARHk_iyHV">
    <mxGraphModel dx="1434" dy="728" grid="1" gridSize="10" guides="1" tooltips="1" connect="1" arrows="1" fold="1" page="1" pageScale="1" pageWidth="827" pageHeight="1169" math="0" shadow="0">
      <root>
        <mxCell id="0" />
        <mxCell id="1" parent="0" />
        <mxCell id="W1TpqmkDNSR5W_4Y88x0-5" value="" style="group" vertex="1" connectable="0" parent="1">
          <mxGeometry x="80" y="730" width="280" height="550" as="geometry" />
        </mxCell>
        <mxCell id="W1TpqmkDNSR5W_4Y88x0-3" value="" style="rounded=0;whiteSpace=wrap;html=1;dashed=1;" vertex="1" parent="W1TpqmkDNSR5W_4Y88x0-5">
          <mxGeometry y="30" width="280" height="520" as="geometry" />
        </mxCell>
        <mxCell id="W1TpqmkDNSR5W_4Y88x0-4" value="MPREGRX" style="text;html=1;align=center;verticalAlign=middle;whiteSpace=wrap;rounded=0;" vertex="1" parent="W1TpqmkDNSR5W_4Y88x0-5">
          <mxGeometry width="280" height="30" as="geometry" />
        </mxCell>
        <mxCell id="W1TpqmkDNSR5W_4Y88x0-6" value="" style="group" vertex="1" connectable="0" parent="1">
          <mxGeometry x="80" y="10" width="280" height="550" as="geometry" />
        </mxCell>
        <mxCell id="W1TpqmkDNSR5W_4Y88x0-1" value="" style="rounded=0;whiteSpace=wrap;html=1;dashed=1;" vertex="1" parent="W1TpqmkDNSR5W_4Y88x0-6">
          <mxGeometry y="30" width="279.99999999999994" height="520" as="geometry" />
        </mxCell>
        <mxCell id="W1TpqmkDNSR5W_4Y88x0-2" value="MPSIPX" style="text;html=1;align=center;verticalAlign=middle;whiteSpace=wrap;rounded=0;" vertex="1" parent="W1TpqmkDNSR5W_4Y88x0-6">
          <mxGeometry width="279.99999999999994" height="30" as="geometry" />
        </mxCell>
      </root>
    </mxGraphModel>
  </diagram>
</mxfile>
